<svg xmlns="http://www.w3.org/2000/svg" viewBox="0 0 316 241" width="316" height="241">
<defs>
</defs>

<path d="M58.1276,172.571 C58.1276,172.571 53.4533,166.383 53.4533,166.383 C32.7726,163.602 16.7673,147.195 14.5747,126.243 C13.9942,123.939 10.4879,122.495 8.40976,121.136 C8.40976,121.136 14.5823,116.479 14.5823,116.479 C16.984,95.7662 32.8147,79.2148 53.3539,76.6455 C55.2818,74.722 56.1923,72.795 58.0511,70.4696 C59.9606,72.8148 61.1522,76.3895 63.9748,76.8813 C84.1876,80.4032 98.5626,96.8555 100.964,116.691 C100.964,116.691 106.866,121.048 106.866,121.048 C104.308,122.876 101.259,124.019 100.862,126.944 C98.0681,147.509 82.9298,163.725 62.5914,166.232 C62.5914,166.232 58.1276,172.571 58.1276,172.571 Z M54.3478,90.088 C54.3478,90.088 54.0431,84.1136 54.0431,84.1136 C46.2527,84.8775 39.8974,87.7588 34.3899,92.9654 C44.2109,93.5844 54.5686,94.4183 54.3478,90.088 Z M80.848,92.8531 C74.7558,87.0336 68.9679,84.7468 62.1079,84.133 C60.9465,86.7045 60.6776,92.4662 63.7569,92.9022 C70.0228,93.7893 75.8284,93.4613 80.848,92.8531 Z M78.9184,124.465 C80.8039,110.796 71.2089,99.6512 58.6374,99.3509 C46.1264,99.0522 35.9054,108.725 36.2535,122.038 C36.5581,133.686 45.4104,142.825 56.5502,143.437 C67.3484,144.03 77.2748,136.38 78.9184,124.465 Z M37.989,142.72 C25.8355,130.271 26.1927,111.873 38.2659,100.146 C34.8726,99.1123 32.2259,99.5919 28.5201,99.626 C19.471,112.296 19.1866,129.489 28.1449,143.004 C31.4768,143.257 34.5594,143.499 37.989,142.72 Z M87.7262,142.628 C96.1664,128.555 95.9056,112.622 87.1152,99.668 C83.8194,99.7803 81.1391,99.191 77.4524,100.084 C89.8097,112.058 89.5469,131.204 76.928,142.852 C80.741,143.481 84.3678,143.634 87.7262,142.628 Z M53.9777,159.277 C53.9777,159.277 54.3084,150.646 54.3084,150.646 C53.0074,150.26 51.2091,149.455 49.7271,149.497 C49.7271,149.497 34.2477,149.943 34.2477,149.943 C39.8165,155.447 46.5036,158.037 53.9777,159.277 Z M62.3384,159.26 C70.1696,157.882 76.1142,155.176 81.6453,149.603 C81.6453,149.603 62.0068,150.077 62.0068,150.077 C61.4865,153.101 61.0532,155.997 62.3384,159.26 Z " fill="rgb(5,49,86)"/>
<path d="M282.067,114.96 C282.067,114.96 282.056,143.965 282.056,143.965 C279.5,144.419 277.513,144.335 274.907,143.916 C274.907,143.916 274.922,114.91 274.922,114.91 C274.922,114.91 262.032,114.938 262.032,114.938 C262.032,114.938 261.983,138.724 261.983,138.724 C261.983,138.724 255.253,138.682 255.253,138.682 C255.253,138.682 255.175,108.345 255.175,108.345 C255.175,108.345 274.497,108.324 274.497,108.324 C275.12,106.425 275.012,104.425 274.805,101.835 C274.805,101.835 251.245,101.781 251.245,101.781 C251.245,101.781 251.243,95.1957 251.243,95.1957 C251.243,95.1957 274.894,95.0917 274.894,95.0917 C274.894,95.0917 274.964,86.9266 274.964,86.9266 C274.964,86.9266 281.963,86.8477 281.963,86.8477 C281.963,86.8477 282.054,95.0555 282.054,95.0555 C282.054,95.0555 305.952,95.1869 305.952,95.1869 C305.952,95.1869 305.942,101.605 305.942,101.605 C305.942,101.605 282.143,101.725 282.143,101.725 C282.143,101.725 282.139,108.147 282.139,108.147 C282.139,108.147 301.653,108.441 301.653,108.441 C301.635,117.787 302.818,127.09 301.128,136.278 C299.439,139.217 293.25,138.538 289.859,138.278 C288.575,136.253 288.412,134.547 287.937,132.018 C287.937,132.018 294.806,131.854 294.806,131.854 C294.806,131.854 295.004,114.916 295.004,114.916 C295.004,114.916 282.067,114.96 282.067,114.96 Z " fill="rgb(5,50,87)"/>
<path d="M173.012,142.017 C173.012,142.017 127.998,142.013 127.998,142.013 C127.998,142.013 128.034,88.8945 128.034,88.8945 C128.034,88.8945 173.011,88.9061 173.011,88.9061 C173.011,88.9061 173.012,142.017 173.012,142.017 Z M165.792,111.023 C165.792,111.023 165.793,95.3832 165.793,95.3832 C165.793,95.3832 135.124,95.3707 135.124,95.3707 C135.124,95.3707 135.055,111.043 135.055,111.043 C135.055,111.043 165.792,111.023 165.792,111.023 Z M165.794,135.197 C165.794,135.197 165.761,117.842 165.761,117.842 C165.761,117.842 135.103,117.907 135.103,117.907 C135.103,117.907 135.333,135.37 135.333,135.37 C135.333,135.37 165.794,135.197 165.794,135.197 Z " fill="rgb(7,50,85)"/>
<path d="M239.939,142.05 C239.939,142.05 186.629,141.89 186.629,141.89 C186.629,141.89 186.538,135.527 186.538,135.527 C186.538,135.527 216.893,135.428 216.893,135.428 C220.757,125.357 222.653,116.039 224.833,106.031 C224.833,106.031 231.873,107.653 231.873,107.653 C230.472,116.965 228.053,125.729 224.473,135.426 C224.473,135.426 240.067,135.561 240.067,135.561 C240.315,137.863 240.392,139.102 239.939,142.05 Z " fill="rgb(7,52,89)"/>
<path d="M238.509,102.667 C238.509,102.667 187.841,102.508 187.841,102.508 C187.841,102.508 188.029,95.987 188.029,95.987 C188.029,95.987 209.207,95.9626 209.207,95.9626 C209.207,95.9626 209.473,86.5054 209.473,86.5054 C209.473,86.5054 216.566,86.5141 216.566,86.5141 C216.566,86.5141 216.842,95.9773 216.842,95.9773 C216.842,95.9773 238.695,95.9983 238.695,95.9983 C238.695,95.9983 238.509,102.667 238.509,102.667 Z " fill="rgb(7,53,89)"/>
<path d="M206.772,130.981 C204.774,132.484 202.025,133.21 199.511,132.632 C198.646,124.346 196.989,117.004 194.532,108.682 C194.532,108.682 201.496,106.391 201.496,106.391 C204.114,114.462 205.556,122.22 206.772,130.981 Z " fill="rgb(7,51,86)"/>
<path d="M143.629,171.389 C143.637,172.268 141.431,172.526 141.083,171.737 C141.083,171.737 140.572,164.406 140.572,164.406 C140.572,164.406 133.057,164.209 133.057,164.209 C133.057,164.209 132.863,171.788 132.863,171.788 C132.336,172.215 130.704,172.253 130.096,171.776 C130.096,171.776 130.14,154.446 130.14,154.446 C130.664,154.056 132.077,154.022 132.438,154.226 C133.739,154.959 132.441,158.639 133.09,160.444 C133.613,161.901 139.842,161.747 140.468,161.155 C142.215,159.505 138.92,152.575 143.475,154.526 C143.475,154.526 143.629,171.389 143.629,171.389 Z " fill="rgb(7,36,79)"/>
<path d="M257.756,157.575 C254.215,155.987 251.497,155.819 248.906,158.344 C247.136,160.069 246.818,163.111 247.619,165.81 C248.559,168.979 252.556,170.41 255.827,168.867 C256.998,168.315 257.585,168.14 258.34,168.376 C259.142,168.627 259.484,170.046 258.667,170.546 C254.783,172.921 249.283,172.844 246.394,169.387 C243.729,166.197 243.408,160.957 245.986,157.529 C248.648,153.989 253.567,152.959 258.066,155.067 C259.147,155.574 258.446,157.884 257.756,157.575 Z " fill="rgb(7,33,81)"/>
<path d="M214.057,171.92 C214.057,171.92 213.763,163.234 213.763,163.234 C213.723,162.072 212.194,161.224 211.518,161.275 C207.665,161.569 208.365,166.015 208.471,172.11 C206.274,172.566 205.879,171.424 205.879,170.132 C205.879,170.132 205.878,155.86 205.878,155.86 C205.877,154.593 206.377,153.316 208.429,154.041 C208.649,155.483 207.986,157.885 209.069,160.181 C210.426,159.104 212.013,158.977 213.445,159.147 C214.417,159.263 216.133,160.158 216.186,161.975 C216.186,161.975 216.469,171.633 216.469,171.633 C216.422,171.749 215.435,172.319 214.057,171.92 Z " fill="rgb(18,49,93)"/>
<path d="M298.874,159.777 C298.874,159.777 292.649,176.683 292.649,176.683 C292.123,178.111 290.047,178.741 289.169,177.867 C289.169,177.867 291.68,171.371 291.68,171.371 C291.68,171.371 287.237,159.385 287.237,159.385 C287.926,158.935 289.942,159.172 290.213,159.727 C291.055,162.269 291.306,164.705 293.419,167.2 C293.419,167.2 295.591,160.265 295.591,160.265 C295.899,159.282 298.076,158.672 298.874,159.777 Z " fill="rgb(13,32,80)"/>
<path d="M183.04,172.227 C179.572,170.222 175.93,173.657 173.564,170.943 C172.534,169.763 172.252,167.737 173.473,166.089 C175.593,163.228 179.578,164.904 180.289,163.542 C180.519,163.103 180.107,161.985 179.201,161.616 C177.676,160.996 175.802,161.709 173.762,162.408 C173.645,159.035 175.767,159.247 177.497,159.019 C179.147,158.802 181.912,159.077 182.601,161.384 C183.588,164.691 182.918,168.221 183.04,172.227 Z M179.873,166.805 C179.265,165.832 176.34,166.208 175.891,166.869 C174.584,168.794 176.488,170.142 177.577,170.084 C179.097,170.003 180.939,168.513 179.873,166.805 Z " fill="rgb(10,32,79)"/>
<path d="M200.222,161.704 C197.291,162.426 194.97,160.585 193.457,161.867 C191.361,163.644 191.109,166.54 192.779,168.577 C194.276,170.405 197.157,169.572 200.127,168.909 C199.082,173.575 193.353,172.854 190.992,170.58 C188.506,168.187 188.253,163.992 190.557,161.079 C192.555,158.553 197.676,157.571 200.222,161.704 Z " fill="rgb(7,29,77)"/>
<path d="M279.393,169.937 C282.779,168.757 282.637,172.422 280.486,172.132 C278.625,172.36 276.783,171.61 276.679,170.191 C276.679,170.191 276.086,162.129 276.086,162.129 C275.596,161.766 274.081,161.017 274.248,160.493 C274.712,159.039 276.719,159.417 276.438,156.7 C276.353,155.881 277.927,155.527 278.518,156.043 C278.985,156.452 278.917,158 279.396,158.877 C279.629,159.305 281.385,159.248 281.757,159.561 C282.128,159.873 282.079,161.352 281.695,161.716 C281.343,162.049 279.913,160.989 279.731,161.447 C278.608,164.267 278.829,166.999 279.393,169.937 Z " fill="rgb(13,34,83)"/>
<path d="M165.1,169.554 C165.595,169.62 167.194,169.592 167.474,169.857 C167.893,170.253 167.977,171.658 167.059,171.967 C165.523,172.484 162.48,172.204 162.379,170.678 C162.379,170.678 161.77,161.506 161.77,161.506 C159.354,161.818 159.317,158.876 161.729,159.123 C161.729,159.123 161.946,156.521 161.946,156.521 C162.001,155.853 163.91,155.498 164.401,155.979 C164.865,156.433 164.499,158.263 164.929,158.752 C165.353,159.232 167.888,159.185 167.817,160.497 C167.767,161.414 166.107,161.5 165.455,161.604 C164.108,163.346 164.381,167.544 165.1,169.554 Z " fill="rgb(8,30,77)"/>
<path d="M226.001,171.871 C224.877,172.197 224.072,172.108 223.292,171.863 C223.292,171.863 223.374,159.368 223.374,159.368 C223.374,159.368 226.09,159.321 226.09,159.321 C226.09,159.321 226.001,171.871 226.001,171.871 Z " fill="rgb(10,39,82)"/>
<path d="M154.182,169.655 C154.213,171.367 153.738,172.368 151.584,172.234 C150.996,167.897 150.861,163.702 151.048,159.117 C152.166,158.918 152.832,158.912 153.991,159.119 C153.991,159.119 154.182,169.655 154.182,169.655 Z M151.819,168.525 C152.198,169.184 152.844,169.071 153.114,168.512 C153.114,168.512 152.644,159.969 152.644,159.969 C152.539,159.982 152.189,160.131 151.989,160.5 C151.989,160.5 151.819,168.525 151.819,168.525 Z " fill="rgb(43,68,104)"/>
<path d="M267.998,159.002 C267.998,159.002 267.73,172.011 267.73,172.011 C267.73,172.011 266.27,172.011 266.27,172.011 C266.27,172.011 266.002,159.002 266.002,159.002 C266.002,159.002 267.998,159.002 267.998,159.002 Z " fill="rgb(4,30,75)"/>
<path d="M151.508,154.45 C151.922,154.048 152.931,154.016 153.395,154.209 C154.099,154.503 154.359,155.587 153.972,156.46 C153.673,157.134 152.269,157.379 151.595,156.927 C151.079,156.581 150.753,155.186 151.508,154.45 Z " fill="rgb(24,41,78)"/>
<path d="M266.2,154.293 C266.958,153.97 267.832,154.235 268.097,154.537 C268.557,155.063 268.303,156.511 267.633,157.004 C267.148,157.36 265.897,157.196 265.523,156.453 C265.256,155.922 265.066,154.776 266.2,154.293 Z " fill="rgb(15,37,76)"/>
<path d="M224.198,154.293 C225.014,153.988 225.801,154.242 225.998,154.593 C226.411,155.327 226.29,156.527 225.522,157.068 C225.019,157.423 223.692,157.372 223.343,156.448 C223.132,155.891 223.056,154.721 224.198,154.293 Z " fill="rgb(1,20,71)"/>
<path d="M267.998,159.002 C268.189,158.899 268.713,158.953 268.933,159.199 C268.933,159.199 268.799,171.709 268.799,171.709 C268.794,172.245 267.772,172.837 267.45,173.013 C266.959,173.283 265.251,172.593 265.231,171.667 C265.231,171.667 264.982,159.955 264.982,159.955 C264.964,159.106 265.606,158.882 266.002,159.002 C266.002,159.002 266.27,172.011 266.27,172.011 C266.27,172.011 267.73,172.011 267.73,172.011 C267.73,172.011 267.998,159.002 267.998,159.002 Z " fill="rgb(160,177,193)"/>










<path d="M151.819,168.525 C151.819,168.525 151.989,160.5 151.989,160.5 C152.189,160.131 152.539,159.982 152.644,159.969 C152.644,159.969 153.114,168.512 153.114,168.512 C152.844,169.071 152.198,169.184 151.819,168.525 Z " fill="rgb(0,25,66)"/>
<path d="M55.3017,110.391 C61.3105,108.939 66.9719,112.627 68.4692,118.036 C70.1012,123.931 66.6032,130.032 61.2179,131.653 C54.9758,133.532 48.7868,129.913 47.3219,124.322 C45.6853,118.075 48.8771,111.943 55.3017,110.391 Z " fill="rgb(4,50,87)"/>
</svg>